<svg width="1995" height="647" viewBox="0 0 1995 647" fill="none" xmlns="http://www.w3.org/2000/svg">
<path d="M1899.89 552.046C1869.89 582.112 1834.24 605.95 1794.99 622.188C1755.74 638.425 1713.67 646.742 1671.19 646.66H323.336C233.923 646.66 153.108 610.539 94.6144 552.046C36.1208 493.552 0 412.724 0 323.324C0 233.923 36.1208 153.096 94.6144 94.615C153.108 36.1343 233.923 0.000562575 323.336 0.000562575H1671.19C1713.67 -0.0788003 1755.74 8.23944 1794.99 24.4769C1834.23 40.7144 1869.89 64.5506 1899.89 94.615C1958.38 153.096 1994.5 233.936 1994.5 323.324C1994.5 412.711 1958.37 493.552 1899.89 552.046Z" fill="black"/>
<path d="M1671.19 580.255C1813.35 580.255 1928.14 465.473 1928.14 323.311C1928.14 181.162 1813.35 66.3799 1671.19 66.3799H323.336C181.175 66.3799 66.3921 181.162 66.3921 323.311C66.3921 465.473 181.175 580.255 323.336 580.255H1671.19Z" stroke="white" stroke-width="29.2468" stroke-miterlimit="2.613"/>
<path fill-rule="evenodd" clip-rule="evenodd" d="M1327.9 491.801C1383.71 491.801 1383.71 433.891 1383.71 433.891V205.39H1410.05V146.429H1251.01V433.891H1199.43V146.416H1040.42V205.377H1065.67V433.891C1065.67 433.891 1065.67 491.801 1121.51 491.801H1327.9ZM1421.63 387.55V432.828C1421.63 432.828 1422.67 491.801 1477.44 491.801H1653.3C1709.1 491.801 1708.07 433.891 1708.07 433.891L1709.1 293.831H1542.73V205.377H1589.06V251.705H1710.17L1709.1 205.377C1709.1 205.377 1709.1 146.416 1653.3 146.416H1476.37C1421.63 146.416 1421.63 205.377 1421.63 205.377V345.437H1588.01V433.891H1541.68V387.55H1421.63ZM269.616 491.801V433.891H302.261L359.12 205.377H327.526V147.467H564.47L657.139 433.891H671.886V491.801H529.737L513.94 433.891H401.259L386.512 491.801H269.616ZM410.727 375.968H498.13L454.954 205.377L410.727 375.968ZM682.404 491.801V433.891H717.15V205.39H682.404V147.48L967.765 146.429C967.765 146.429 1024.62 146.429 1024.62 205.39V289.628C1024.62 318.058 1005.68 318.058 1005.68 318.058C1005.68 318.058 1024.62 319.109 1024.62 345.437V433.891C1024.62 491.801 969.866 491.801 969.866 491.801H682.404ZM843.515 289.628H905.64V205.39H843.515V289.628ZM843.515 433.891H905.64V348.589H843.515V433.891Z" fill="white"/>
</svg>
