<svg width="789" height="789" viewBox="0 0 789 789" fill="none" xmlns="http://www.w3.org/2000/svg">
<path fill-rule="evenodd" clip-rule="evenodd" d="M0 0H789V789H0V0Z" fill="#F5F5DC"/>
<path fill-rule="evenodd" clip-rule="evenodd" d="M106.31 533.139C104.759 567.596 147.562 556.564 155.032 535.067L213.283 367.362C186.354 376.174 164.164 396.575 150.317 420.087C140.935 436.022 136.744 462.571 159.739 474.748C157.631 484.74 149.412 494.159 136.113 494.445C109.802 495.006 98.4347 465.6 106.707 425.715C118.619 368.266 195.138 324.657 247.053 329.004C294.936 333.011 325.119 372.053 320.891 415.38C317.252 452.682 290.118 495.55 261.522 502.083C284.174 525.869 285.984 567.182 312.41 567.113C315.959 581.046 305.537 599.589 289.528 599.986C245.493 601.083 237.086 508.448 209.46 502.628C203.911 518.478 198.332 534.317 192.723 550.146C182.523 578.942 154.983 596.171 126.756 597.268C94.7753 598.508 68.5007 574.98 70.752 547.477C72.4957 526.262 107.141 514.645 106.31 533.139V533.139ZM256.778 366.887C243.442 405.102 230.18 443.341 216.832 481.547C237.131 484.674 269.803 452.669 279.426 424.802C287.453 401.569 276.88 376.482 256.778 366.887ZM491.494 591.906C467.671 590.948 451.838 572.95 463.905 536.733L471.789 513.086H440.267C433.28 565.795 398.565 592.249 362.429 592.401C328.996 592.536 304.931 551.485 314.645 517.028C325.447 478.727 365.454 447.577 402.33 449.538C425.212 450.754 441.654 461.114 447.651 479.095H483.115L514.158 385.99H554.546L523.311 479.095H548.14L536.81 513.09H511.907L502.816 540.183C499.107 551.255 517.703 551.902 525.967 543.63C539.68 529.917 548.304 520.965 562.917 497.822C577.018 475.477 601.754 450.692 635.331 449.055C674.143 447.143 676.734 465.538 683.857 473.885C696.632 488.833 718.211 472.796 724.99 471.216C721.666 477.421 720.242 493.082 714.531 501.17C707.544 511.068 689.309 515.656 680.652 514.568C677.647 530.83 659.755 590.084 605.278 591.91C579.806 592.765 566.441 575.631 558.476 560.875C537.67 583.609 513.622 592.802 491.494 591.906V591.906ZM382.626 487.474C366.703 487.139 348.611 506.815 345.184 529.839C343.347 542.201 352.417 562.148 364.889 561.37C388.933 559.876 404.369 542.864 407.255 513.09C389.686 513.577 381.803 506.684 382.626 487.474ZM623.023 485.01C607.104 484.674 589.012 504.351 585.586 527.375C583.748 539.737 592.822 559.683 605.291 558.898C629.33 557.403 644.77 540.396 647.656 510.626C630.083 511.113 622.2 504.216 623.023 485.01V485.01ZM11.6003 627.795H777.396V460.717L434.106 161.209H349.31L11.6003 459.542V627.795ZM57.9647 434.229L354.824 168.466L658.278 434.229H57.9647ZM720.733 183.243H739.631C742.468 183.243 744.891 183.775 746.889 184.831C748.886 185.883 750.384 187.275 751.399 188.99C752.406 190.705 752.902 192.526 752.902 194.462C752.902 197.361 751.862 199.849 749.783 201.925C747.711 204.012 744.826 205.044 741.125 205.044C740.503 205.044 740 205.019 739.631 204.962L751.223 223.111H745.382L733.79 205.703H725.837V223.111H720.737V183.243H720.733V183.243ZM738.162 201.331C741.015 201.331 743.221 200.656 744.789 199.301C746.357 197.958 747.147 196.345 747.147 194.471C747.147 192.637 746.41 191.041 744.94 189.673C743.471 188.29 741.453 187.61 738.903 187.61H725.833V201.331H738.162ZM698.285 204.204V202.907C698.285 196.501 699.853 190.623 702.972 185.294C706.013 180.038 710.391 175.681 715.661 172.666C720.945 169.605 726.951 168.012 733.058 168.053C737.589 168.053 742.014 168.945 746.361 170.722C750.686 172.5 754.652 175.05 758.063 178.249C761.527 181.471 764.322 185.343 766.291 189.645C768.307 194.006 769.341 198.757 769.32 203.562C769.168 209.972 767.903 215.477 765.521 220.074C763.147 224.687 760.151 228.371 756.536 231.134C753.126 233.789 749.279 235.832 745.169 237.172C741.195 238.436 737.437 239.059 733.888 239.059C733.209 239.059 732.722 239.038 732.419 238.977C728.318 238.825 724.273 237.794 720.274 235.894C716.215 233.944 712.521 231.311 709.353 228.109C706.119 224.892 703.463 221.14 701.503 217.02C699.578 213.009 698.484 208.65 698.285 204.204V204.204ZM703.385 204.184C703.385 207.88 704.192 211.519 705.817 215.101C707.457 218.704 709.717 221.992 712.493 224.814C715.269 227.668 718.518 230.019 722.096 231.764C725.513 233.475 729.243 234.469 733.058 234.687H734.175C737.875 234.687 741.514 233.872 745.096 232.251C748.735 230.591 752.036 228.274 754.834 225.416C757.729 222.515 760.063 219.104 761.719 215.354C763.373 211.638 764.225 207.614 764.219 203.545C764.219 198.122 762.803 193.067 759.975 188.384C757.217 183.775 753.332 179.944 748.686 177.25C743.995 174.504 739.021 173.133 733.79 173.133C730.872 173.133 727.667 173.734 724.163 174.929C720.541 176.196 717.165 178.078 714.183 180.492C711.032 182.997 708.437 186.243 706.423 190.23C704.392 194.217 703.385 198.871 703.385 204.184V204.184Z" fill="black"/>
</svg>
