<svg width="1200" height="800" viewBox="0 0 1200 800" fill="none" xmlns="http://www.w3.org/2000/svg">
<path d="M175.815 540.077C163.011 536.194 157.401 533.732 157.401 526.407C157.401 519.854 166.128 517.527 173.604 517.527C180.143 517.527 187.174 519.472 191.947 522.598C192.506 522.96 193.135 523.201 193.793 523.303C194.451 523.406 195.124 523.369 195.767 523.194C196.41 523.02 197.008 522.711 197.524 522.289C198.04 521.868 198.46 521.342 198.759 520.746L200.935 516.398C201.452 515.36 201.57 514.169 201.268 513.05C200.965 511.932 200.263 510.962 199.294 510.327C192.414 505.831 182.656 503.045 173.828 503.045C155.275 503.045 142.802 512.572 142.802 526.752C142.802 545.175 158.364 549.836 170.852 553.588C183.932 557.506 189.65 560.027 189.579 567.811C189.579 575.626 180.382 578.406 171.777 578.406C163.529 578.406 154.555 574.019 149.104 568.985C148.016 567.985 146.613 567.409 145.158 567.574C144.435 567.657 143.741 567.905 143.129 568.3C142.518 568.695 142.006 569.225 141.634 569.85L139.129 574.085C138.587 574.991 138.366 576.054 138.5 577.101C138.634 578.149 139.117 579.121 139.87 579.862C147.959 587.824 160.136 592.781 171.66 592.781C191.106 592.781 204.169 582.691 204.169 567.731C204.32 548.725 188.511 543.93 175.815 540.077V540.077ZM261.49 506.025C261.112 505.203 260.506 504.506 259.744 504.017C258.982 503.529 258.096 503.269 257.191 503.269H252.046C251.139 503.268 250.251 503.529 249.488 504.021C248.726 504.512 248.122 505.214 247.749 506.041L211.492 585.974C211.162 586.694 211.019 587.485 211.075 588.274C211.131 589.064 211.385 589.827 211.813 590.493C212.241 591.158 212.83 591.706 213.525 592.084C214.22 592.462 215 592.66 215.791 592.658H221.05C221.96 592.658 222.85 592.396 223.614 591.903C224.378 591.41 224.984 590.706 225.358 589.878L234.396 569.899H275.087L284.233 589.9C284.61 590.722 285.214 591.419 285.975 591.908C286.736 592.396 287.621 592.657 288.526 592.658H293.791C294.583 592.658 295.362 592.458 296.057 592.078C296.751 591.698 297.339 591.15 297.767 590.483C298.194 589.816 298.447 589.053 298.502 588.263C298.557 587.473 298.413 586.682 298.082 585.962L261.49 506.025ZM240.728 555.64L254.584 524.923L268.599 555.64H240.726H240.728ZM321.806 503.275H317.009C315.756 503.276 314.555 503.774 313.67 504.66C312.784 505.546 312.286 506.747 312.285 507.999V587.934C312.285 590.547 314.402 592.658 317.009 592.658H321.806C322.427 592.658 323.041 592.536 323.614 592.299C324.188 592.062 324.709 591.714 325.147 591.275C325.586 590.836 325.934 590.315 326.171 589.742C326.409 589.169 326.531 588.554 326.53 587.934V507.999C326.529 506.747 326.031 505.546 325.145 504.66C324.26 503.774 323.059 503.276 321.806 503.275V503.275ZM421.531 503.275H416.842C416.221 503.274 415.606 503.396 415.032 503.633C414.458 503.87 413.937 504.218 413.498 504.657C413.058 505.095 412.71 505.616 412.472 506.19C412.234 506.764 412.112 507.378 412.112 507.999V566.221L367.244 505.198C366.805 504.6 366.231 504.115 365.568 503.78C364.906 503.446 364.174 503.273 363.432 503.275H357.831C357.21 503.275 356.596 503.397 356.022 503.634C355.449 503.872 354.928 504.22 354.49 504.658C354.051 505.097 353.703 505.618 353.466 506.191C353.228 506.764 353.106 507.379 353.107 507.999V587.934C353.105 588.555 353.227 589.169 353.464 589.743C353.701 590.317 354.049 590.838 354.488 591.277C354.927 591.716 355.448 592.064 356.021 592.301C356.595 592.538 357.21 592.659 357.831 592.658H362.628C363.249 592.659 363.864 592.537 364.438 592.3C365.012 592.063 365.533 591.715 365.972 591.277C366.412 590.838 366.76 590.317 366.998 589.743C367.236 589.17 367.358 588.555 367.358 587.934V529.741L412.112 590.741C412.553 591.338 413.129 591.822 413.792 592.156C414.455 592.489 415.187 592.662 415.929 592.66H421.531C422.152 592.66 422.767 592.538 423.34 592.301C423.913 592.063 424.434 591.715 424.873 591.276C425.312 590.837 425.66 590.316 425.897 589.743C426.134 589.169 426.256 588.555 426.255 587.934V507.999C426.254 506.747 425.756 505.546 424.871 504.66C423.985 503.774 422.784 503.276 421.531 503.275V503.275ZM503.979 503.275H445.19C443.938 503.276 442.738 503.775 441.853 504.66C440.969 505.546 440.472 506.747 440.472 507.999V512.695C440.472 515.296 442.583 517.411 445.188 517.411H467.465V587.934C467.465 590.547 469.582 592.658 472.189 592.658H476.978C477.6 592.66 478.216 592.539 478.791 592.303C479.366 592.066 479.888 591.718 480.329 591.28C480.769 590.841 481.119 590.319 481.357 589.745C481.596 589.171 481.718 588.556 481.719 587.934V517.413H503.979C505.231 517.413 506.432 516.917 507.317 516.032C508.203 515.148 508.702 513.948 508.703 512.697V508.001C508.704 507.381 508.582 506.766 508.345 506.193C508.108 505.619 507.76 505.098 507.321 504.659C506.882 504.22 506.361 503.872 505.788 503.634C505.214 503.397 504.6 503.275 503.979 503.275V503.275ZM539.14 546.847H513.627C513.007 546.847 512.392 546.969 511.819 547.206C511.246 547.443 510.725 547.791 510.286 548.23C509.848 548.669 509.5 549.19 509.262 549.763C509.025 550.336 508.903 550.95 508.903 551.571V555.46C508.903 558.073 511.02 560.184 513.627 560.184H539.138C539.758 560.184 540.372 560.062 540.944 559.824C541.517 559.587 542.037 559.239 542.475 558.8C542.913 558.361 543.261 557.84 543.497 557.267C543.734 556.694 543.855 556.08 543.854 555.46V551.571C543.855 550.951 543.734 550.337 543.497 549.764C543.261 549.191 542.913 548.67 542.475 548.231C542.037 547.792 541.517 547.444 540.944 547.207C540.372 546.969 539.758 546.847 539.138 546.847H539.14ZM638.461 543.981H634.112C634.09 543.981 634.061 543.987 634.031 543.987H619.842C619.221 543.986 618.607 544.109 618.033 544.346C617.459 544.583 616.938 544.931 616.498 545.37C616.059 545.809 615.711 546.33 615.473 546.904C615.235 547.477 615.112 548.092 615.112 548.713V553.516C615.112 556.123 617.229 558.24 619.844 558.24H629.395V572.854C623.777 576.689 617.133 578.741 610.331 578.743C592.692 578.743 578.347 564.916 578.347 547.913C578.347 530.968 592.692 517.182 610.331 517.182C618.517 517.182 626.577 520.199 632.447 525.464C632.924 525.893 633.483 526.22 634.091 526.426C634.699 526.632 635.342 526.711 635.982 526.66C636.621 526.609 637.244 526.428 637.811 526.128C638.378 525.829 638.879 525.417 639.281 524.917L642.14 521.373C642.906 520.421 643.275 519.21 643.169 517.993C643.063 516.775 642.491 515.646 641.572 514.84C632.988 507.315 621.882 503.153 610.331 503.153C584.835 503.153 564.087 523.225 564.087 547.913C564.087 572.651 584.727 592.766 610.1 592.766C621.574 592.766 633.024 588.561 641.552 581.222C642.067 580.777 642.48 580.226 642.763 579.607C643.047 578.988 643.193 578.315 643.193 577.635V548.707C643.19 547.453 642.691 546.252 641.804 545.366C640.917 544.48 639.714 543.982 638.461 543.981V543.981ZM705.475 503.153C680.044 503.153 659.353 523.225 659.353 547.904C659.353 572.651 680.044 592.766 705.475 592.766C730.906 592.766 751.603 572.651 751.603 547.904C751.603 523.223 730.906 503.153 705.475 503.153V503.153ZM705.475 578.629C687.959 578.629 673.715 564.845 673.715 547.904C673.715 531.023 687.961 517.296 705.475 517.296C722.983 517.296 737.228 531.023 737.228 547.904C737.228 564.845 722.983 578.629 705.475 578.629ZM827.295 545.434C832.107 541.294 834.779 535.194 834.779 527.775C834.779 512.66 823.414 503.267 805.12 503.267H772.409C771.158 503.27 769.958 503.769 769.074 504.655C768.19 505.541 767.694 506.741 767.694 507.993V587.934C767.694 590.541 769.811 592.658 772.409 592.658H805.351C826.289 592.658 838.777 582.857 838.777 566.443C838.777 557.154 834.577 549.764 827.295 545.436V545.434ZM805.006 539.522H781.937V517.413H805.006C812.078 517.413 820.526 519.307 820.526 528.353C820.526 535.764 815.305 539.522 805.006 539.522ZM781.937 553.659H805.006C812.294 553.659 824.523 555.244 824.523 565.859C824.523 576.324 813.915 578.521 805.006 578.521H781.937V553.661V553.659ZM896.788 506.025C896.41 505.203 895.804 504.506 895.042 504.017C894.28 503.529 893.393 503.269 892.488 503.269H887.346C886.436 503.267 885.545 503.528 884.78 504.019C884.015 504.511 883.408 505.213 883.032 506.041L846.785 585.974C846.458 586.695 846.317 587.486 846.376 588.275C846.435 589.064 846.691 589.826 847.122 590.49C847.549 591.157 848.137 591.706 848.832 592.085C849.527 592.464 850.307 592.661 851.099 592.658H856.356C857.265 592.658 858.156 592.396 858.92 591.903C859.684 591.41 860.289 590.706 860.663 589.878L869.701 569.899H910.378L919.524 589.9C919.902 590.722 920.508 591.419 921.27 591.908C922.032 592.396 922.918 592.657 923.823 592.658H929.082C929.874 592.658 930.653 592.458 931.347 592.079C932.042 591.699 932.63 591.15 933.057 590.484C933.486 589.818 933.741 589.054 933.798 588.263C933.855 587.473 933.711 586.681 933.381 585.96L896.788 506.025ZM876.026 555.64L889.881 524.923L903.896 555.64H876.024H876.026ZM957.098 503.275H952.294C951.04 503.276 949.838 503.773 948.951 504.659C948.064 505.545 947.564 506.746 947.562 507.999V587.934C947.562 590.547 949.685 592.658 952.294 592.658H957.098C958.352 592.658 959.554 592.161 960.442 591.275C961.33 590.39 961.831 589.188 961.834 587.934V507.999C961.83 506.746 961.329 505.545 960.441 504.659C959.554 503.774 958.351 503.276 957.098 503.275V503.275ZM1056.82 503.275H1052.13C1050.88 503.276 1049.67 503.775 1048.79 504.66C1047.91 505.546 1047.41 506.747 1047.41 507.999V566.221L1002.53 505.198C1002.09 504.6 1001.52 504.114 1000.86 503.78C1000.2 503.445 999.465 503.273 998.724 503.275H993.122C992.501 503.275 991.886 503.396 991.312 503.634C990.738 503.871 990.217 504.218 989.777 504.657C989.338 505.096 988.989 505.617 988.751 506.19C988.513 506.764 988.39 507.378 988.39 507.999V587.934C988.39 590.547 990.507 592.658 993.122 592.658H997.925C998.545 592.658 999.159 592.536 999.732 592.298C1000.3 592.061 1000.82 591.713 1001.26 591.274C1001.7 590.835 1002.05 590.314 1002.28 589.741C1002.52 589.168 1002.64 588.554 1002.64 587.934V529.741L1047.41 590.741C1047.85 591.337 1048.42 591.821 1049.08 592.154C1049.74 592.487 1050.47 592.661 1051.21 592.66H1056.82C1057.44 592.66 1058.06 592.538 1058.63 592.3C1059.2 592.063 1059.72 591.714 1060.16 591.275C1060.6 590.836 1060.95 590.315 1061.18 589.742C1061.42 589.169 1061.54 588.554 1061.54 587.934V507.999C1061.54 506.748 1061.04 505.547 1060.16 504.661C1059.27 503.775 1058.07 503.277 1056.82 503.275" fill="black"/>
<path d="M657.38 377.84V456.428H642.911V367.03L657.38 377.84ZM937.876 456.169H880.958L880.555 455.773L830.494 406.259C828.456 404.242 825.316 403.623 822.658 404.732C821.344 405.277 820.22 406.199 819.431 407.382C818.641 408.566 818.22 409.957 818.222 411.38V456.428H803.35V344.948C803.35 342.975 802.521 341.067 801.088 339.713L759.497 300.433C758.16 299.168 756.389 298.464 754.549 298.467H733.757C729.781 298.467 726.548 301.7 726.548 305.669V456.428H711.791V214.398C711.791 211.459 710.033 208.845 707.318 207.736C704.654 206.641 701.456 207.304 699.454 209.342L630.574 279.237C629.24 280.582 628.494 282.4 628.5 284.293V338.287L600.297 317.228C597.733 315.319 593.973 315.384 591.481 317.379L527.355 368.787C526.512 369.462 525.832 370.318 525.365 371.292C524.899 372.265 524.658 373.332 524.661 374.412V456.428H510.128V411.221C510.128 395.348 499.195 378.474 478.95 378.474C458.698 378.474 447.773 395.427 447.773 411.38V456.428L433.074 456.421V425.755C433.074 413.324 424.518 400.123 408.659 400.123C392.8 400.123 384.244 413.339 384.244 425.784V456.435L369.603 456.442L369.595 455.081C369.574 448.902 369.552 440.987 369.552 437.811C369.552 427.253 359.585 417.998 348.22 417.998C336.855 417.998 326.888 427.21 326.888 437.717V456.428L262.675 456.421C258.699 456.421 255.473 459.655 255.465 463.623C255.465 465.553 256.214 467.361 257.576 468.722C258.937 470.083 260.744 470.832 262.667 470.832L334.089 470.839C336.012 470.839 337.827 470.09 339.181 468.729C340.542 467.368 341.299 465.56 341.299 463.637V439.021C341.299 436.356 344.201 432.402 348.22 432.402C352.181 432.402 355.148 436.018 355.148 439.251C355.148 441.102 355.22 463.68 355.22 463.68C355.242 467.642 358.468 470.861 362.422 470.861L391.453 470.839C395.422 470.839 398.655 467.606 398.655 463.637V425.784C398.655 421.887 400.744 414.527 408.659 414.527C416.574 414.527 418.67 421.866 418.67 425.755V463.616C418.67 467.591 421.896 470.825 425.864 470.825L454.968 470.839C456.869 470.839 458.727 470.069 460.067 468.729C461.406 467.389 462.177 465.531 462.177 463.637V411.38C462.177 404.984 465.684 392.878 478.95 392.878C491.251 392.878 495.717 403.846 495.717 411.221V463.637C495.717 467.606 498.95 470.839 502.919 470.839H531.863C535.839 470.839 539.065 467.606 539.065 463.637V377.869L539.584 377.451L596.141 332.107L628.5 356.27V463.637C628.5 467.606 631.733 470.839 635.702 470.839H664.589C668.557 470.839 671.791 467.606 671.791 463.637V374.225C671.791 371.97 670.703 369.81 668.896 368.456L642.911 349.046V287.246L643.307 286.843L697.379 231.971V463.637C697.379 467.606 700.613 470.839 704.581 470.839H733.757C737.725 470.839 740.959 467.606 740.959 463.637V312.871H751.683L752.079 313.245L788.938 348.052V463.637C788.938 467.606 792.172 470.839 796.14 470.839H825.424C829.399 470.839 832.633 467.606 832.633 463.637V428.636L872.928 468.491C874.275 469.826 876.095 470.574 877.991 470.573H937.876C941.851 470.573 945.085 467.339 945.085 463.371C945.085 459.395 941.851 456.169 937.876 456.169" fill="black"/>
</svg>
