<svg width="870" height="870" viewBox="0 0 870 870" fill="none" xmlns="http://www.w3.org/2000/svg">
<path fill-rule="evenodd" clip-rule="evenodd" d="M0 0H870V870H0V0Z" fill="#F5F5DC"/>
<path fill-rule="evenodd" clip-rule="evenodd" d="M818.298 452.77C829.302 452.806 831.626 462.708 831.617 465.913L831.563 513.72C831.5 520.002 826.161 526.872 818.181 526.876L733.634 526.759C725.673 526.714 720.36 519.826 720.333 513.562L720.414 465.75C720.441 462.528 722.743 452.612 733.761 452.589L818.298 452.77ZM804.776 512.099L804.83 467.497L747.179 467.384L747.107 511.995L804.776 512.099ZM40.4137 525.649C40.0229 525.643 39.6497 525.485 39.3733 525.209C39.0969 524.932 38.9391 524.559 38.9333 524.168L38.9513 512.402C38.9638 512.009 39.1258 511.635 39.4043 511.358C39.6828 511.08 40.0567 510.919 40.4498 510.908L121.543 511.061L121.498 495.034L51.6929 494.921C43.0451 494.907 38.3781 487.262 38.3871 481.76L38.4684 464.708C38.4729 459.806 42.2507 451.551 51.7922 451.564L146.246 451.7C147.099 451.718 147.749 452.368 147.722 453.18L147.69 464.974C147.691 465.17 147.652 465.364 147.577 465.545C147.502 465.726 147.392 465.89 147.253 466.029C147.114 466.167 146.949 466.276 146.768 466.35C146.586 466.424 146.392 466.461 146.196 466.459L65.134 466.306L65.0257 481.733L134.867 481.827C143.493 481.854 148.159 489.5 148.173 495.025L148.218 512.672C148.168 517.601 144.431 525.825 134.89 525.816L40.4137 525.649ZM281.898 451.935C282.092 451.933 282.285 451.97 282.465 452.043C282.644 452.117 282.807 452.226 282.944 452.363C283.081 452.501 283.19 452.664 283.263 452.844C283.336 453.024 283.372 453.216 283.37 453.41L283.32 474.673C283.322 474.866 283.285 475.057 283.212 475.235C283.139 475.413 283.032 475.574 282.896 475.71C282.759 475.846 282.597 475.953 282.419 476.025C282.241 476.098 282.05 476.134 281.858 476.131L256.614 476.091L256.632 466.621L202.24 466.554L202.154 511.156L281.767 511.305C282.159 511.304 282.535 511.456 282.816 511.73C283.096 512.003 283.258 512.376 283.266 512.767L283.23 524.556C283.231 524.751 283.194 524.944 283.119 525.124C283.045 525.304 282.936 525.467 282.799 525.604C282.661 525.742 282.497 525.85 282.317 525.924C282.137 525.997 281.944 526.034 281.749 526.032L188.74 525.861C180.738 525.847 175.403 518.978 175.412 512.677L175.466 464.911C175.484 461.72 177.822 451.768 188.808 451.781L281.898 451.935ZM310.491 524.57L310.563 453.447C310.563 453.251 310.602 453.057 310.677 452.876C310.752 452.695 310.862 452.53 311.001 452.392C311.14 452.253 311.305 452.144 311.486 452.069C311.667 451.995 311.861 451.957 312.057 451.957L335.861 451.993C336.656 451.993 337.319 452.657 337.342 453.474L337.261 481.2L395.083 481.272V453.614C395.086 453.214 395.247 452.832 395.53 452.55C395.813 452.268 396.195 452.108 396.595 452.106L420.358 452.142C421.171 452.16 421.816 452.806 421.83 453.618L421.73 524.809C421.723 525.194 421.567 525.562 421.294 525.834C421.021 526.106 420.653 526.261 420.268 526.267L396.482 526.208C396.288 526.21 396.095 526.173 395.916 526.1C395.736 526.026 395.573 525.917 395.436 525.78C395.299 525.642 395.191 525.479 395.118 525.299C395.045 525.119 395.008 524.927 395.011 524.732L395.033 496.122L337.234 496.031L337.243 524.647C337.233 525.039 337.073 525.413 336.794 525.69C336.516 525.966 336.141 526.125 335.749 526.132L311.981 526.064C311.783 526.07 311.586 526.036 311.402 525.963C311.218 525.89 311.051 525.78 310.912 525.64C310.772 525.5 310.663 525.333 310.59 525.149C310.518 524.965 310.484 524.768 310.491 524.57ZM558.137 453.884L558.046 513.377C558.055 518.73 553.813 526.515 544.718 526.52L462.126 526.348C454.765 526.353 448.753 520.115 448.807 512.88L448.87 453.695C448.871 453.298 449.03 452.918 449.31 452.638C449.591 452.358 449.972 452.201 450.368 452.201L474.127 452.26C474.515 452.271 474.883 452.43 475.157 452.705C475.43 452.979 475.589 453.348 475.599 453.735L475.572 511.657L531.331 511.752L531.394 453.835C531.394 453.009 532.062 452.341 532.875 452.359L556.692 452.377C557.469 452.386 558.137 453.058 558.137 453.884ZM492.312 453.749C492.315 453.355 492.472 452.977 492.751 452.698C493.03 452.42 493.407 452.262 493.802 452.26L513.178 452.291C513.563 452.309 513.928 452.47 514.2 452.743C514.473 453.016 514.633 453.382 514.649 453.767L514.595 474.637C514.601 474.827 514.569 475.016 514.5 475.192C514.432 475.369 514.328 475.53 514.196 475.666C514.064 475.801 513.905 475.909 513.73 475.982C513.555 476.055 513.368 476.092 513.178 476.091L493.802 476.059C493.406 476.059 493.027 475.904 492.745 475.627C492.463 475.35 492.301 474.974 492.294 474.579L492.312 453.749ZM691.785 452.585C692.171 452.591 692.539 452.748 692.812 453.021C693.084 453.293 693.241 453.661 693.248 454.047L693.23 475.31C693.216 475.701 693.055 476.072 692.778 476.348C692.502 476.625 692.131 476.786 691.74 476.799L666.474 476.741L666.483 467.271L612.109 467.226L612.055 511.828L691.641 511.941C691.839 511.934 692.037 511.967 692.222 512.04C692.407 512.113 692.575 512.223 692.714 512.364C692.854 512.505 692.964 512.673 693.035 512.858C693.107 513.043 693.139 513.241 693.13 513.44L693.112 525.215C693.104 525.605 692.943 525.975 692.665 526.247C692.386 526.518 692.012 526.67 691.623 526.669L598.605 526.529C590.611 526.484 585.312 519.619 585.303 513.372L585.376 465.588C585.403 462.361 587.705 452.445 598.695 452.445L691.785 452.585ZM369.473 379.462L380.73 412.505L413.019 412.5L395.507 380.901L369.473 379.462ZM475.369 381.75L459.598 412.5L491.265 412.509L503.379 379.823L475.369 381.75ZM453.541 381.154L418.855 381.096L418.81 412.496L453.487 412.514L453.541 381.154ZM449.542 372.339L501.429 334.295L480.898 373.969L550.893 342.262L496.776 413.371L496.767 423.513H375.386L375.558 413.015L321.274 342.839L391.513 373.337L371.085 335.026L422.723 371.992L435.867 324.411L449.542 372.339Z" fill="black"/>
</svg>
