<svg width="483" height="145" viewBox="0 0 483 145" fill="none" xmlns="http://www.w3.org/2000/svg">
<path d="M2.41418 132.4V95H5.63311V106.6C7.484 105.7 9.65677 105 11.8295 105C17.6236 105 20.923 109.7 20.923 118.2C20.923 129.8 15.7727 133.7 10.2201 133.7C5.31122 133.8 3.46034 132.8 2.41418 132.4ZM5.63311 109.8V129.8C6.67926 130.1 7.88636 130.5 10.3006 130.5C15.2094 130.5 17.6236 125.4 17.6236 119.2C17.6236 113.5 16.5775 108.4 11.2662 108.4C9.33488 108.3 7.1621 109.1 5.63311 109.8Z" fill="#E9E9E9"/>
<path d="M31.9479 105.6H35.1669V109.3C36.213 107.2 38.3858 105 41.5242 105C42.8118 105 43.697 105.3 44.0994 105.5L43.5361 108.9C42.8118 108.7 42.168 108.5 40.8805 108.5C38.1444 108.5 36.1325 110.9 35.0864 112.9V133.3H31.8675V105.6H31.9479Z" fill="#E9E9E9"/>
<path d="M53.1123 128.3V105.6H56.3312V127.3C56.3312 129.4 57.0555 130.5 58.504 130.5C58.8259 130.5 59.1478 130.5 59.4697 130.4L59.5502 133.6C58.7454 133.8 57.9407 133.9 57.0555 133.9C54.6413 133.8 53.1123 132 53.1123 128.3ZM53.1928 94.6001H56.3312V99.3001H53.1928V94.6001Z" fill="#E9E9E9"/>
<path d="M69.6093 105.6H72.8282V108.8C75.162 106.7 77.3347 104.9 80.7951 104.9C87.1525 104.9 87.5548 110.8 87.5548 115.5V133.4H84.4164V116.3C84.4164 111.5 83.7726 108.5 79.9904 108.5C77.0933 108.5 74.8401 110.2 72.8282 111.9V133.4H69.6093V105.6Z" fill="#E9E9E9"/>
<path d="M100.109 143.5L100.752 139.9C102.684 140.7 104.937 141.4 107.271 141.4C110.57 141.4 113.387 140.1 113.387 134.1V131.3C111.777 132.9 110.49 133.6 107.915 133.6C103.73 133.6 98.4188 131.6 98.4188 120C98.4188 109.2 103.086 104.8 109.444 104.8C111.536 104.8 114.272 105.3 116.525 106V135C116.525 141.8 112.823 145 107.029 145C104.615 145 101.799 144.4 100.109 143.5ZM113.306 127.9V109.1C112.743 108.9 111.214 108.3 109.202 108.3C103.408 108.3 101.557 113.1 101.557 119.7C101.557 127.3 104.132 130.3 108.237 130.3C110.731 130.4 112.099 129.1 113.306 127.9Z" fill="#E9E9E9"/>
<path d="M126.987 132.7L127.55 129.3C129.481 130 131.574 130.5 133.505 130.5C136.804 130.5 138.897 128.9 138.897 126.2C138.897 120 127.631 121.8 127.631 112.6C127.631 107.5 131.01 104.8 135.195 104.8C136.965 104.8 139.219 105.3 140.828 106.1L140.104 109.3C138.655 108.6 136.804 108.1 135.195 108.1C132.137 108.1 130.849 109.9 130.849 112.2C130.849 118.6 142.035 116.7 142.035 125.9C142.035 131.8 137.287 133.9 133.344 133.9C131.171 133.9 128.677 133.4 126.987 132.7Z" fill="#E9E9E9"/>
<path d="M166.74 132.7L167.304 129.3C169.235 130 171.327 130.5 173.259 130.5C176.558 130.5 178.65 128.9 178.65 126.2C178.65 120 167.384 121.8 167.384 112.6C167.384 107.5 170.764 104.8 174.949 104.8C176.719 104.8 178.972 105.3 180.582 106.1L179.858 109.3C178.409 108.6 176.558 108.1 174.949 108.1C171.891 108.1 170.603 109.9 170.603 112.2C170.603 118.6 181.789 116.7 181.789 125.9C181.789 131.8 177.041 133.9 173.098 133.9C170.925 133.9 168.35 133.4 166.74 132.7Z" fill="#E9E9E9"/>
<path d="M192.17 105.6H195.389V107.9C197.32 106.2 199.171 105 201.907 105C207.299 105 210.598 110 210.598 119C210.598 130.2 205.448 133.9 199.573 133.9C198.125 133.9 196.355 133.6 195.308 133.4V144.5H192.089V105.6H192.17ZM207.379 119.2C207.379 114.1 206.092 108.4 201.263 108.4C198.608 108.4 196.515 110.1 195.389 111V130C196.033 130.1 197.884 130.6 199.573 130.6C205.287 130.5 207.379 125.8 207.379 119.2Z" fill="#E9E9E9"/>
<path d="M219.933 125.9C219.933 119 224.842 117.6 228.463 117.5L233.775 117.4V113.8C233.775 109.4 232.085 108.3 228.544 108.3C226.13 108.3 224.359 108.8 222.508 109.7L221.784 106.5C223.474 105.6 225.969 104.8 229.027 104.8C233.936 104.8 236.913 107 236.913 112.5V127.9C236.913 130 238.281 130.4 239.327 130.4L239.166 133.5C238.925 133.5 238.523 133.6 238.281 133.6C236.35 133.6 234.258 132.6 234.016 130.1C232.889 131.2 230.395 133.8 226.532 133.8C222.589 133.8 219.933 131 219.933 125.9ZM233.855 127.4V120.2L228.463 120.5C225.003 120.6 223.072 122.6 223.072 125.8C223.072 129 224.923 130.5 227.337 130.5C229.831 130.5 232.165 128.9 233.855 127.4Z" fill="#E9E9E9"/>
<path d="M248.904 120C248.904 110 253.008 104.8 259.526 104.8C262.343 104.8 264.354 105.7 265.481 106.5L264.515 109.7C263.63 109.2 261.779 108.3 259.607 108.3C254.939 108.3 252.283 112 252.283 119.7C252.283 126.6 254.295 130.4 260.411 130.4C262.343 130.4 263.55 130 264.918 129.5L265.401 132.7C264.033 133.3 262.504 133.8 260.009 133.8C252.525 133.9 248.904 129.5 248.904 120Z" fill="#E9E9E9"/>
<path d="M274.253 120C274.253 109.2 278.518 104.8 283.99 104.8C289.704 104.8 292.279 109.4 292.279 118.7V120.2H277.552C277.633 128.8 281.173 130.5 285.438 130.5C287.611 130.5 289.301 130 291.393 129.2L291.957 132.4C290.267 133.3 287.772 133.9 284.875 133.9C278.357 133.9 274.253 130.6 274.253 120ZM288.899 117.2C288.899 111.6 287.289 108 283.668 108C280.449 108 277.954 111 277.552 117.2H288.899Z" fill="#E9E9E9"/>
<path d="M301.855 132.7L302.418 129.3C304.35 130 306.442 130.5 308.373 130.5C311.673 130.5 313.765 128.9 313.765 126.2C313.765 120 302.499 121.8 302.499 112.6C302.499 107.5 305.879 104.8 310.063 104.8C311.834 104.8 314.087 105.3 315.696 106.1L314.972 109.3C313.524 108.6 311.673 108.1 310.063 108.1C307.005 108.1 305.718 109.9 305.718 112.2C305.718 118.6 316.903 116.7 316.903 125.9C316.903 131.8 312.156 133.9 308.212 133.9C306.04 133.9 303.464 133.4 301.855 132.7Z" fill="#E9E9E9"/>
<path d="M344.103 125.6V109H340.804V105.6H344.103V99.8999H347.242V105.6H354.243V109H347.322V125.5C347.322 129.4 348.771 130.5 351.346 130.5C352.553 130.5 354.162 130.1 355.128 129.7L355.691 133C354.565 133.5 352.473 134 350.944 134C346.759 133.9 344.103 132.1 344.103 125.6Z" fill="#E9E9E9"/>
<path d="M363.095 119.7C363.095 110.1 367.28 104.8 373.476 104.8C379.833 104.8 383.213 110.1 383.213 119.2C383.213 129.2 378.868 133.8 372.993 133.8C366.877 133.9 363.095 128.8 363.095 119.7ZM379.914 119.5C379.914 114.3 378.707 108.1 373.235 108.1C367.762 108.1 366.394 114.2 366.394 119.5C366.394 125.2 368.004 130.6 373.235 130.6C378.626 130.6 379.914 125 379.914 119.5Z" fill="#E9E9E9"/>
<path d="M409.528 128.3V95H412.747V127.2C412.747 129.3 413.471 130.4 414.92 130.4C415.242 130.4 415.563 130.4 415.885 130.3L416.046 133.5C415.242 133.7 414.437 133.8 413.552 133.8C411.057 133.8 409.528 132 409.528 128.3Z" fill="#E9E9E9"/>
<path d="M426.025 128.3V105.6H429.244V127.3C429.244 129.4 429.968 130.5 431.417 130.5C431.739 130.5 432.061 130.5 432.382 130.4L432.543 133.6C431.739 133.8 430.934 133.9 430.049 133.9C427.554 133.8 426.025 132 426.025 128.3ZM426.105 94.6001H429.244V99.3001H426.105V94.6001Z" fill="#E9E9E9"/>
<path d="M443.649 108.8H440.349V105.5H443.649V103.6C443.649 96.7998 446.868 94.2998 450.891 94.2998C452.42 94.2998 453.467 94.4998 454.352 94.8998L453.788 98.0998C453.145 97.8998 452.501 97.6998 450.972 97.6998C448.155 97.6998 446.948 99.2998 446.948 103.5V105.4H451.777V108.7H446.948V133.2H443.729V108.8H443.649Z" fill="#E9E9E9"/>
<path d="M460.065 120C460.065 109.2 464.331 104.8 469.803 104.8C475.516 104.8 478.091 109.4 478.091 118.7V120.2H463.365C463.445 128.8 466.986 130.5 471.251 130.5C473.424 130.5 475.114 130 477.206 129.2L477.77 132.4C476.08 133.3 473.585 133.9 470.688 133.9C464.089 133.9 460.065 130.6 460.065 120ZM474.712 117.2C474.712 111.6 473.102 108 469.481 108C466.262 108 463.767 111 463.365 117.2H474.712Z" fill="#E9E9E9"/>
<path d="M298.797 1.7998C299.763 1.7998 300.567 2.5998 300.809 3.7998L302.901 15.7998H271.195C270.068 15.7998 269.183 16.8998 269.183 18.2998V26.6998H299.924V38.9998H269.102V47.3998C269.102 48.7998 269.988 49.8998 271.114 49.8998H302.901L300.809 61.8998C300.567 62.9998 299.763 63.8998 298.797 63.8998H251.076C246.57 63.8998 242.868 59.2998 242.868 53.6998V11.9998C242.868 6.3998 246.57 1.7998 251.076 1.7998H298.797Z" fill="#E9E9E9"/>
<path d="M158.21 1.7998C159.176 1.7998 159.981 2.5998 160.142 3.7998L162.234 15.7998H130.608C129.481 15.7998 128.516 16.8998 128.516 18.2998V26.6998H159.257V38.9998H128.516V47.3998C128.516 48.7998 129.401 49.8998 130.608 49.8998H162.314L160.222 61.8998C160.061 62.9998 159.257 63.8998 158.291 63.8998H110.49C105.983 63.8998 102.281 59.2998 102.281 53.6998V11.9998C102.281 6.3998 105.983 1.7998 110.49 1.7998H158.21Z" fill="#E9E9E9"/>
<path d="M434.716 15.2998L426.669 38.9998H443.407L434.716 15.2998ZM429.244 1.7998H455.156C456.042 1.7998 456.685 2.4998 457.088 3.3998L479.781 63.9998H452.501L447.833 51.2998H422.484L418.139 63.9998H406.47L427.313 3.3998C427.635 2.4998 428.359 1.7998 429.244 1.7998Z" fill="#E9E9E9"/>
<path d="M93.6708 1.7998H67.4366V63.8998H93.6708V1.7998Z" fill="#E9E9E9"/>
<path d="M59.2283 3.60001L57.7798 16.4C51.7443 15.1 44.9845 14.3 37.7419 14.3C26.3147 14.3 23.6591 15.6 23.6591 20.2C23.6591 23.3 25.6709 24.8 29.0508 25.2L44.8236 26.9C53.9975 27.9 61.4815 33.2 61.4815 45C61.4815 56.4 54.2389 62 49.652 63.3C45.8697 64.4 39.5123 65.3 29.7751 65.3C19.4745 65.3 8.85205 64.1 0.885205 62L2.33372 49.2C8.36921 50.5 16.5775 51.3 23.7396 51.3C34.4425 51.3 38.7076 50.6 38.7076 44.8C38.7076 41.4 36.2934 40.1 32.994 39.7L15.9337 37.8C6.84022 36.8 0 30.4 0 20.1C0 5.40001 9.97868 0 31.2236 0C41.6851 0.3 51.2614 1.50001 59.2283 3.60001Z" fill="#E9E9E9"/>
<path d="M235.143 26.7998V61.2998C226.693 63.5998 214.863 65.4998 202.551 65.4998C171.327 65.4998 166.66 50.6998 166.66 32.7998C166.66 18.5998 171.086 0.299805 202.551 0.299805C212.852 0.299805 223.474 1.49981 231.441 3.59981L229.992 16.3998C223.957 15.0998 216.956 14.2998 209.713 14.2998C209.713 14.2998 191.768 12.3998 191.768 33.1998C191.768 51.7998 200.539 52.7998 204.724 52.7998C206.655 52.7998 208.989 52.3998 211.001 52.0998V36.9998H204.724V26.7998H235.143Z" fill="#E9E9E9"/>
<path d="M402.366 1.7998H376.132V63.8998H402.366V1.7998Z" fill="#E9E9E9"/>
<path d="M367.521 1.7998V59.9998C367.521 62.1998 365.992 63.9998 364.222 63.9998H336.7L320.364 21.4998V63.9998H309.339V5.8998C309.339 3.6998 310.787 1.7998 312.638 1.7998H340.241L356.496 44.1998V1.7998H367.521Z" fill="#E9E9E9"/>
<path d="M483 8.60007C483 12.7001 480.344 16.0001 477.045 16.0001C473.746 16.0001 471.09 12.7001 471.09 8.60007C471.09 4.50007 473.746 1.30007 477.125 1.30007C480.425 1.20007 483 4.50007 483 8.60007ZM473.343 4.60007C472.619 5.70007 472.136 7.10006 472.136 8.50006C472.136 12.0001 474.309 14.7001 477.125 14.7001C479.862 14.7001 482.115 11.9001 482.115 8.50006C482.115 5.10006 479.862 2.30007 477.206 2.30007C475.596 2.40007 474.309 3.20007 473.343 4.60007ZM479.54 12.9001H478.333L476.562 9.70008V12.9001H475.596V4.40006H476.723C477.447 4.40006 477.85 4.50006 478.252 4.90006C478.735 5.30006 478.976 6.00006 478.976 6.90006C478.976 8.20006 478.413 9.00008 477.367 9.20008L479.54 12.9001ZM476.884 8.00006C477.608 8.00006 478.011 7.60007 478.011 6.80007C478.011 6.00007 477.608 5.60007 476.804 5.60007H476.562V8.10007H476.884V8.00006Z" fill="#E9E9E9"/>
</svg>
