<svg width="652" height="652" viewBox="0 0 652 652" fill="none" xmlns="http://www.w3.org/2000/svg">
<path d="M24.6 381.4V344H28.6V355.6C30.9 354.7 33.6 354 36.3 354C43.5 354 47.6 358.7 47.6 367.2C47.6 378.8 41.2 382.7 34.3 382.7C28.2 382.8 25.9 381.8 24.6 381.4ZM28.6 358.8V378.8C29.9 379.1 31.4 379.5 34.4 379.5C40.5 379.5 43.5 374.4 43.5 368.2C43.5 362.5 42.2 357.4 35.6 357.4C33.2 357.3 30.5 358.1 28.6 358.8Z" fill="#231815"/>
<path d="M61.3 354.6H65.3V358.3C66.6 356.2 69.3 354 73.2 354C74.8 354 75.9 354.3 76.4 354.5L75.7 357.9C74.8 357.7 74 357.5 72.4 357.5C69 357.5 66.5 359.9 65.2 361.9V382.3H61.2V354.6H61.3Z" fill="#231815"/>
<path d="M87.6 377.3V354.6H91.6V376.3C91.6 378.4 92.5 379.5 94.3 379.5C94.7 379.5 95.1 379.5 95.5 379.4L95.6 382.6C94.6 382.8 93.6 382.9 92.5 382.9C89.5 382.8 87.6 381 87.6 377.3ZM87.7 343.6H91.6V348.3H87.7V343.6Z" fill="#231815"/>
<path d="M108.1 354.6H112.1V357.8C115 355.7 117.7 353.9 122 353.9C129.9 353.9 130.4 359.8 130.4 364.5V382.4H126.5V365.3C126.5 360.5 125.7 357.5 121 357.5C117.4 357.5 114.6 359.2 112.1 360.9V382.4H108.1V354.6Z" fill="#231815"/>
<path d="M146 392.5L146.8 388.9C149.2 389.7 152 390.4 154.9 390.4C159 390.4 162.5 389.1 162.5 383.1V380.3C160.5 381.9 158.9 382.6 155.7 382.6C150.5 382.6 143.9 380.6 143.9 369C143.9 358.2 149.7 353.8 157.6 353.8C160.2 353.8 163.6 354.3 166.4 355V384C166.4 390.8 161.8 394 154.6 394C151.6 394 148.1 393.4 146 392.5ZM162.4 376.9V358.1C161.7 357.9 159.8 357.3 157.3 357.3C150.1 357.3 147.8 362.1 147.8 368.7C147.8 376.3 151 379.3 156.1 379.3C159.2 379.4 160.9 378.1 162.4 376.9Z" fill="#231815"/>
<path d="M179.4 381.7L180.1 378.3C182.5 379 185.1 379.5 187.5 379.5C191.6 379.5 194.2 377.9 194.2 375.2C194.2 369 180.2 370.8 180.2 361.6C180.2 356.5 184.4 353.8 189.6 353.8C191.8 353.8 194.6 354.3 196.6 355.1L195.7 358.3C193.9 357.6 191.6 357.1 189.6 357.1C185.8 357.1 184.2 358.9 184.2 361.2C184.2 367.6 198.1 365.7 198.1 374.9C198.1 380.8 192.2 382.9 187.3 382.9C184.6 382.9 181.5 382.4 179.4 381.7Z" fill="#231815"/>
<path d="M228.8 381.7L229.5 378.3C231.9 379 234.5 379.5 236.9 379.5C241 379.5 243.6 377.9 243.6 375.2C243.6 369 229.6 370.8 229.6 361.6C229.6 356.5 233.8 353.8 239 353.8C241.2 353.8 244 354.3 246 355.1L245.1 358.3C243.3 357.6 241 357.1 239 357.1C235.2 357.1 233.6 358.9 233.6 361.2C233.6 367.6 247.5 365.7 247.5 374.9C247.5 380.8 241.6 382.9 236.7 382.9C234 382.9 230.8 382.4 228.8 381.7Z" fill="#231815"/>
<path d="M260.4 354.6H264.4V356.9C266.8 355.2 269.1 354 272.5 354C279.2 354 283.3 359 283.3 368C283.3 379.2 276.9 382.9 269.6 382.9C267.8 382.9 265.6 382.6 264.3 382.4V393.5H260.3V354.6H260.4ZM279.3 368.2C279.3 363.1 277.7 357.4 271.7 357.4C268.4 357.4 265.8 359.1 264.4 360V379C265.2 379.1 267.5 379.6 269.6 379.6C276.7 379.5 279.3 374.8 279.3 368.2Z" fill="#231815"/>
<path d="M294.9 374.9C294.9 368 301 366.6 305.5 366.5L312.1 366.4V362.8C312.1 358.4 310 357.3 305.6 357.3C302.6 357.3 300.4 357.8 298.1 358.7L297.2 355.5C299.3 354.6 302.4 353.8 306.2 353.8C312.3 353.8 316 356 316 361.5V376.9C316 379 317.7 379.4 319 379.4L318.8 382.5C318.5 382.5 318 382.6 317.7 382.6C315.3 382.6 312.7 381.6 312.4 379.1C311 380.2 307.9 382.8 303.1 382.8C298.2 382.8 294.9 380 294.9 374.9ZM312.2 376.4V369.2L305.5 369.5C301.2 369.6 298.8 371.6 298.8 374.8C298.8 378 301.1 379.5 304.1 379.5C307.2 379.5 310.1 377.9 312.2 376.4Z" fill="#231815"/>
<path d="M330.9 369C330.9 359 336 353.8 344.1 353.8C347.6 353.8 350.1 354.7 351.5 355.5L350.3 358.7C349.2 358.2 346.9 357.3 344.2 357.3C338.4 357.3 335.1 361 335.1 368.7C335.1 375.6 337.6 379.4 345.2 379.4C347.6 379.4 349.1 379 350.8 378.5L351.4 381.7C349.7 382.3 347.8 382.8 344.7 382.8C335.4 382.9 330.9 378.5 330.9 369Z" fill="#231815"/>
<path d="M362.4 369C362.4 358.2 367.7 353.8 374.5 353.8C381.6 353.8 384.8 358.4 384.8 367.7V369.2H366.5C366.6 377.8 371 379.5 376.3 379.5C379 379.5 381.1 379 383.7 378.2L384.4 381.4C382.3 382.3 379.2 382.9 375.6 382.9C367.5 382.9 362.4 379.6 362.4 369ZM380.6 366.2C380.6 360.6 378.6 357 374.1 357C370.1 357 367 360 366.5 366.2H380.6Z" fill="#231815"/>
<path d="M396.7 381.7L397.4 378.3C399.8 379 402.4 379.5 404.8 379.5C408.9 379.5 411.5 377.9 411.5 375.2C411.5 369 397.5 370.8 397.5 361.6C397.5 356.5 401.7 353.8 406.9 353.8C409.1 353.8 411.9 354.3 413.9 355.1L413 358.3C411.2 357.6 408.9 357.1 406.9 357.1C403.1 357.1 401.5 358.9 401.5 361.2C401.5 367.6 415.4 365.7 415.4 374.9C415.4 380.8 409.5 382.9 404.6 382.9C401.9 382.9 398.7 382.4 396.7 381.7Z" fill="#231815"/>
<path d="M449.2 374.6V358H445.1V354.6H449.2V348.9H453.1V354.6H461.8V358H453.2V374.5C453.2 378.4 455 379.5 458.2 379.5C459.7 379.5 461.7 379.1 462.9 378.7L463.6 382C462.2 382.5 459.6 383 457.7 383C452.5 382.9 449.2 381.1 449.2 374.6Z" fill="#231815"/>
<path d="M472.8 368.7C472.8 359.1 478 353.8 485.7 353.8C493.6 353.8 497.8 359.1 497.8 368.2C497.8 378.2 492.4 382.8 485.1 382.8C477.5 382.9 472.8 377.8 472.8 368.7ZM493.7 368.5C493.7 363.3 492.2 357.1 485.4 357.1C478.6 357.1 476.9 363.2 476.9 368.5C476.9 374.2 478.9 379.6 485.4 379.6C492.1 379.6 493.7 374 493.7 368.5Z" fill="#231815"/>
<path d="M530.5 377.3V344H534.5V376.2C534.5 378.3 535.4 379.4 537.2 379.4C537.6 379.4 538 379.4 538.4 379.3L538.6 382.5C537.6 382.7 536.6 382.8 535.5 382.8C532.4 382.8 530.5 381 530.5 377.3Z" fill="#231815"/>
<path d="M551 377.3V354.6H555V376.3C555 378.4 555.9 379.5 557.7 379.5C558.1 379.5 558.5 379.5 558.9 379.4L559.1 382.6C558.1 382.8 557.1 382.9 556 382.9C552.9 382.8 551 381 551 377.3ZM551.1 343.6H555V348.3H551.1V343.6Z" fill="#231815"/>
<path d="M572.9 357.8H568.8V354.5H572.9V352.6C572.9 345.8 576.9 343.3 581.9 343.3C583.8 343.3 585.1 343.5 586.2 343.9L585.5 347.1C584.7 346.9 583.9 346.7 582 346.7C578.5 346.7 577 348.3 577 352.5V354.4H583V357.7H577V382.2H573V357.8H572.9Z" fill="#231815"/>
<path d="M593.3 369C593.3 358.2 598.6 353.8 605.4 353.8C612.5 353.8 615.7 358.4 615.7 367.7V369.2H597.4C597.5 377.8 601.9 379.5 607.2 379.5C609.9 379.5 612 379 614.6 378.2L615.3 381.4C613.2 382.3 610.1 382.9 606.5 382.9C598.3 382.9 593.3 379.6 593.3 369ZM611.5 366.2C611.5 360.6 609.5 357 605 357C601 357 597.9 360 597.4 366.2H611.5Z" fill="#231815"/>
<path d="M392.9 250.8C394.1 250.8 395.1 251.6 395.4 252.8L398 264.8H358.6C357.2 264.8 356.1 265.9 356.1 267.3V275.7H394.3V288H356V296.4C356 297.8 357.1 298.9 358.5 298.9H398L395.4 310.9C395.1 312 394.1 312.9 392.9 312.9H333.6C328 312.9 323.4 308.3 323.4 302.7V261C323.4 255.4 328 250.8 333.6 250.8H392.9Z" fill="#070707"/>
<path d="M218.2 250.8C219.4 250.8 220.4 251.6 220.6 252.8L223.2 264.8H183.9C182.5 264.8 181.3 265.9 181.3 267.3V275.7H219.5V288H181.3V296.4C181.3 297.8 182.4 298.9 183.9 298.9H223.3L220.7 310.9C220.5 312 219.5 312.9 218.3 312.9H158.9C153.3 312.9 148.7 308.3 148.7 302.7V261C148.7 255.4 153.3 250.8 158.9 250.8H218.2Z" fill="#070707"/>
<path d="M561.8 264.3L551.8 288H572.6L561.8 264.3ZM555 250.8H587.2C588.3 250.8 589.1 251.5 589.6 252.4L617.8 313H583.9L578.1 300.3H546.6L541.2 313H526.7L552.6 252.4C553 251.5 553.9 250.8 555 250.8Z" fill="#070707"/>
<path d="M138 250.8H105.4V312.9H138V250.8Z" fill="#070707"/>
<path d="M95.2 252.6L93.4 265.4C85.9 264.1 77.5 263.3 68.5 263.3C54.3 263.3 51 264.6 51 269.2C51 272.3 53.5 273.8 57.7 274.2L77.3 275.9C88.7 276.9 98 282.2 98 294C98 305.4 89 311 83.3 312.3C78.6 313.4 70.7 314.3 58.6 314.3C45.8 314.3 32.6 313.1 22.7 311L24.5 298.2C32 299.5 42.2 300.3 51.1 300.3C64.4 300.3 69.7 299.6 69.7 293.8C69.7 290.4 66.7 289.1 62.6 288.7L41.4 286.8C30.1 285.8 21.6 279.4 21.6 269.1C21.6 254.4 34 249 60.4 249C73.4 249.3 85.3 250.5 95.2 252.6Z" fill="#070707"/>
<path d="M313.8 275.8V310.3C303.3 312.6 288.6 314.5 273.3 314.5C234.5 314.5 228.7 299.7 228.7 281.8C228.7 267.6 234.2 249.3 273.3 249.3C286.1 249.3 299.3 250.5 309.2 252.6L307.4 265.4C299.9 264.1 291.2 263.3 282.2 263.3C282.2 263.3 259.9 261.4 259.9 282.2C259.9 300.8 270.8 301.8 276 301.8C278.4 301.8 281.3 301.4 283.8 301.1V286H276V275.8H313.8Z" fill="#070707"/>
<path d="M521.6 250.8H489V312.9H521.6V250.8Z" fill="#070707"/>
<path d="M478.3 250.8V309C478.3 311.2 476.4 313 474.2 313H440L419.7 270.5V313H406V254.9C406 252.7 407.8 250.8 410.1 250.8H444.4L464.6 293.2V250.8H478.3Z" fill="#070707"/>
<path d="M621.8 257.6C621.8 261.7 618.5 265 614.4 265C610.3 265 607 261.7 607 257.6C607 253.5 610.3 250.3 614.5 250.3C618.6 250.2 621.8 253.5 621.8 257.6ZM609.8 253.6C608.9 254.7 608.3 256.1 608.3 257.5C608.3 261 611 263.7 614.5 263.7C617.9 263.7 620.7 260.9 620.7 257.5C620.7 254.1 617.9 251.3 614.6 251.3C612.6 251.4 611 252.2 609.8 253.6ZM617.5 261.9H616L613.8 258.7V261.9H612.6V253.4H614C614.9 253.4 615.4 253.5 615.9 253.9C616.5 254.3 616.8 255 616.8 255.9C616.8 257.2 616.1 258 614.8 258.2L617.5 261.9ZM614.2 257C615.1 257 615.6 256.6 615.6 255.8C615.6 255 615.1 254.6 614.1 254.6H613.8V257.1H614.2V257Z" fill="#231815"/>
</svg>
