<svg width="1503" height="1503" viewBox="0 0 1503 1503" fill="none" xmlns="http://www.w3.org/2000/svg">
<path fill-rule="evenodd" clip-rule="evenodd" d="M0 0H1503V1503H0V0Z" fill="#F5F5DC"/>
<path fill-rule="evenodd" clip-rule="evenodd" d="M102.606 962.327V751.25H25.942V691.218H239.303V751.25H162.639V962.327H102.606ZM250.071 962.327V693.822H318.907V694.47H389.076C394.024 693.605 399.039 693.169 404.062 693.167C451.674 693.167 490.512 731.999 490.512 779.61C490.512 817.786 465.553 850.301 431.127 861.709L489.21 964.26H413.521L359.75 869.319H318.907V962.311H250.071V962.327V962.327ZM318.899 818.456V748.631C319.499 748.631 385.021 748.646 385.614 748.677C404.008 749.621 418.729 764.912 418.729 783.54C418.729 802.168 404.016 817.474 385.614 818.417C385.021 818.441 319.507 818.456 318.899 818.456ZM631.116 684.037C708.201 684.037 771.079 749.691 771.079 830.199C771.079 910.708 708.201 976.354 631.116 976.354C554.03 976.354 491.16 910.7 491.16 830.199C491.16 749.699 554.03 684.037 631.116 684.037ZM631.116 744.061C669.385 744.061 700.598 782.752 700.598 830.192C700.598 877.631 669.385 916.314 631.116 916.314C592.838 916.314 561.625 877.631 561.625 830.192C561.625 782.752 592.838 744.061 631.116 744.061ZM916.899 684.037C966.53 684.037 1010.26 711.25 1035.11 752.116L976.471 785.957C964.3 760.888 942.147 744.061 916.891 744.061C878.621 744.061 847.401 782.752 847.401 830.192C847.401 877.631 878.621 916.314 916.891 916.314C942.95 916.314 965.719 898.388 977.61 871.978L1039.03 901.374C1015.05 946.046 969.251 976.346 916.891 976.346C839.798 976.346 776.935 910.692 776.935 830.192C776.935 749.691 839.806 684.037 916.899 684.037V684.037ZM1018.36 966.561H1087.53L1101.51 928.712H1212.14L1226.12 966.561H1295.28L1194.53 693.822H1119.12L1018.36 966.561V966.561ZM1121.99 873.249L1156.83 778.963L1191.66 873.249H1121.99V873.249ZM1304.79 697.09H1374.62V912.408H1477.71V967.216C1419.4 967.216 1362.79 967.871 1304.79 967.871V697.09V697.09ZM751.5 526.654L1116.2 594.483L1480.9 662.305H22.0979L386.799 594.483L751.5 526.654V526.654ZM1423.12 715.733H1445.45C1447.78 715.693 1450.08 716.297 1452.09 717.479C1454.11 718.66 1455.75 720.374 1456.85 722.431C1457.92 724.396 1458.44 726.408 1458.44 728.459C1458.44 730.314 1458.01 732.03 1457.17 733.597C1456.28 735.209 1454.93 736.524 1453.29 737.379C1451.54 738.346 1449.41 738.814 1446.87 738.814L1456.54 755.134H1446.97L1438.69 738.814H1431.29V755.134H1423.12V715.733V715.733ZM1431.29 721.714V732.155H1443.16C1445.38 732.155 1447.12 731.648 1448.36 730.634C1448.92 730.217 1449.38 729.675 1449.7 729.052C1450.02 728.428 1450.19 727.74 1450.2 727.039C1450.2 725.652 1449.54 724.42 1448.28 723.336C1447 722.252 1445.31 721.714 1443.16 721.714H1431.29V721.714ZM1402.34 734.338V733.114C1402.34 729.176 1403.15 725.176 1404.83 721.113C1406.51 717.051 1408.94 713.339 1412.14 709.948C1415.49 706.475 1419.49 703.707 1423.92 701.807C1428.58 699.748 1433.74 698.735 1439.47 698.735C1443.84 698.735 1448.16 699.741 1452.44 701.76C1456.71 703.78 1460.56 706.563 1463.98 710.127C1467.4 713.69 1470.12 717.761 1472.1 722.322C1474.08 726.899 1475.07 731.624 1475.07 736.513C1474.81 743.804 1472.86 750.159 1469.17 755.57C1465.68 760.839 1460.86 765.094 1455.19 767.906C1449.85 770.645 1443.94 772.09 1437.94 772.124C1434.23 772.124 1430.32 771.329 1426.21 769.762C1421.94 768.105 1418 765.709 1414.56 762.681C1410.82 759.367 1407.81 755.306 1405.73 750.759C1403.46 745.964 1402.34 740.482 1402.34 734.338V734.338ZM1409.08 735.11C1409.07 735.295 1409.06 735.48 1409.03 735.663C1409.01 735.852 1408.99 736.042 1408.99 736.233C1408.99 739.32 1409.67 742.525 1411.06 745.87C1412.43 749.223 1414.38 752.311 1416.89 755.157C1419.4 758.019 1422.45 760.319 1426.02 762.073C1429.58 763.843 1433.42 764.724 1437.56 764.724H1438.69C1442.09 764.724 1445.44 764.116 1448.73 762.9C1455.64 760.336 1461.29 755.197 1464.49 748.56C1466.44 744.503 1467.54 740.086 1467.7 735.585C1467.75 735.118 1467.76 734.767 1467.76 734.541C1467.76 729.839 1466.31 725.285 1463.44 720.856C1460.63 716.513 1456.87 712.865 1452.44 710.189C1448.01 707.499 1443.67 706.142 1439.45 706.142C1432.14 706.384 1426.32 707.967 1421.97 710.938C1417.61 713.901 1414.54 717.464 1412.71 721.589C1410.85 725.897 1409.63 730.451 1409.08 735.11V735.11Z" fill="black"/>
</svg>
