<svg width="1087" height="1087" viewBox="0 0 1087 1087" fill="none" xmlns="http://www.w3.org/2000/svg">
<path fill-rule="evenodd" clip-rule="evenodd" d="M0 0H1087V1087H0V0Z" fill="#F5F5DC"/>
<path fill-rule="evenodd" clip-rule="evenodd" d="M543.506 66.5432L974.954 497.991L543.506 930.116L112.052 497.997L543.506 66.5432ZM285.307 391.483H232.726V444.063L178.798 497.991L232.726 553.273V604.505H283.959L543.506 863.375L802.37 604.505H854.279V551.925L908.207 497.997L854.279 444.74V391.483H801.028L543.506 133.284L285.307 391.483Z" fill="black"/>
<path fill-rule="evenodd" clip-rule="evenodd" d="M775.409 392.154H310.926L543.506 159.574L775.409 392.154ZM854.279 525.635V471.03L881.917 497.991L854.279 525.635V525.635ZM309.572 603.834H776.756L543.506 837.085L309.572 603.834V603.834ZM232.726 470.353V526.983L205.088 497.991L232.726 470.353V470.353Z" fill="black"/>
<path fill-rule="evenodd" clip-rule="evenodd" d="M134.299 543.162L89.134 497.991L543.506 43.6253L997.872 497.997L952.701 543.167L997.872 588.332L543.506 1043.37L89.134 588.332L134.299 543.162V543.162ZM981.022 543.838L1026.19 589.009L543.506 1071.02L60.8193 589.009L105.984 543.838L60.8193 498.674L543.506 15.9817L1026.19 498.668L981.022 543.838V543.838Z" fill="black"/>
<path fill-rule="evenodd" clip-rule="evenodd" d="M543.506 951.021L940.571 554.626L974.954 588.326L543.506 1020.45L112.052 588.326L146.435 554.626L543.506 951.021V951.021Z" fill="black"/>
<path fill-rule="evenodd" clip-rule="evenodd" d="M809.791 587.655H755.434L752.417 565.408H722.225L719.208 587.655H664.851L701.089 404.966H767.514L809.791 587.655ZM749.998 517.543L736.718 475.073L724.035 517.543H749.998V517.543ZM529.171 587.655V404.966H578.492V459.571L605.284 404.966H658.868L619.895 494.625L661.298 587.655H610.15L578.492 530.355V587.655H529.171V587.655ZM416.854 587.655V404.966H509.817V448.106H470.646V476.421H505.638V514.176H470.646V543.838H511.903V587.655H416.854ZM308.304 587.655L267.633 404.966H318.798L338.474 485.861L362.745 404.966H413.244L362.085 587.655H308.304Z" fill="black"/>
</svg>
