<svg width="601" height="201" viewBox="0 0 601 201" fill="none" xmlns="http://www.w3.org/2000/svg">
<path d="M600.8 0.5H0.800049V200.5H600.8V0.5Z" fill="black"/>
<path d="M551.3 91.5H551.2V109.2H554.7V102H556.2C556.2 102.1 560.6 109.1 560.6 109.1L564.3 109.2H564.6C564.6 109.2 559.9 101.9 559.7 101.6C562.2 100.9 563.6 99.2 563.6 96.8C563.6 93.5 561.3 91.5 557.3 91.5H551.3ZM557 94.2C559 94.2 560.1 95.1 560.1 96.8C560.1 98.9 558.4 99.4 557 99.4H554.5V94.3H557V94.2ZM540.4 100.5C540.4 109.8 547.4 116.9 556.7 116.9C566.1 116.9 573.2 109.8 573.2 100.5C573.2 91.2 566.2 84.1 556.8 84.1C547.5 84.1 540.4 91.2 540.4 100.5ZM543.5 100.5C543.5 92.9 549.2 87.2 556.8 87.2C564.4 87.2 570.1 92.9 570.1 100.5C570.1 108.1 564.4 113.9 556.8 113.9C549.2 113.8 543.5 108.1 543.5 100.5ZM161 47.8H245.7V81.2H227.2V65.7H197V89.9H221.4V107.7H197V135.3H227.2V119.6H245.7V153.1H160.1V135.2H171.6V65.5H161V47.8ZM321.5 119.7H340.6V153.3H257.7V135.4H271.6V65.7H257.7V47.9H311.2V65.7H297V135.4H321.5V119.7ZM112.3 47.8H152.7V65.6H143.3L115.3 153.2H92.5L63.5 65.6H52V47.8H100.2V65.6H89L105.2 119H105.5L123 65.6H112.2V47.8H112.3ZM401 47.8H437.8V65.6H428.1V124.6C428.1 149.1 404.4 154.4 389.8 154.4C369.6 154.4 350.9 146.5 350.9 120.7V65.6H339.4V47.8H384.7V65.6H376.2V119.1C376.2 129.5 381 136.5 392.3 136.5C401.8 136.5 409.4 132 409.4 120.1V65.6H401V47.8ZM533 135.4H544.8V153.3H495.6V136.5H505.5L490.4 114.6L475.8 136.5H485.7V153.3H444V135.4H455L478.9 99.1L455.2 65.7H446.1V47.9H492V64.7H482.7L497.2 84.4L510.4 64.7H501.5V47.9H544.8V65.7H531.2L508 100.1L533 135.4Z" fill="#F5F5DC"/>
</svg>
