<svg width="258" height="258" viewBox="0 0 258 258" fill="none" xmlns="http://www.w3.org/2000/svg">
<path fill-rule="evenodd" clip-rule="evenodd" d="M0.346375 0.902697H257.355V257.911H0.346375V0.902697Z" fill="#F5F5DC"/>
<path fill-rule="evenodd" clip-rule="evenodd" d="M193.165 125.705V53.2574H212.8V80.0547C214.36 80.0547 215.757 77.1027 216.992 71.2L221.836 53.2574H241.469L236.544 71.2C234.085 80.1533 232.165 86.448 229.535 87.072C236.355 90.2854 243.609 99.6667 243.903 107.112L244.636 125.705H225.371V111.348C225.371 105.62 218.997 100.836 212.8 99.9227V125.705H193.165Z" fill="black"/>
<path fill-rule="evenodd" clip-rule="evenodd" d="M167.161 85.2307V53.056H185.969V125.705H167.161L151.844 92.7427V125.705H133.035V53.0547H151.844V53.056H152.209L167.161 85.2307" fill="black"/>
<path fill-rule="evenodd" clip-rule="evenodd" d="M15.3823 53.2574H35.0959V101.685C35.0959 103.443 35.4823 104.807 36.2427 105.737C37.0093 106.673 39.1937 107.155 40.2869 107.155C41.3407 107.155 44.7693 106.679 45.5563 105.737C46.3495 104.785 46.7552 103.431 46.7552 101.685V53.2574H66.4672V100.84C66.4672 102.789 66.9036 104.319 67.7724 105.395C68.6412 106.472 72.1989 107.019 73.4109 107.019C74.5703 107.019 76.8099 106.553 77.6136 105.627C78.4161 104.7 78.8255 103.376 78.8255 101.685V53.2574H98.5396V104.087C98.5396 107.7 97.8145 111.001 96.3781 113.96C94.9287 116.92 92.9527 119.456 90.4751 121.529C87.9979 123.616 85.2307 125.212 82.2136 126.289C79.1959 127.367 76.1391 127.913 73.0817 127.913C66.0719 127.913 60.8161 125.43 57.3636 120.467C55.3995 122.784 52.9625 124.529 50.0631 125.703C47.164 126.875 44.0812 127.476 40.8391 127.476C36.6235 127.476 32.538 126.521 28.6115 124.612C24.6849 122.703 21.4833 119.907 19.0459 116.237C16.6079 112.569 15.3823 108.232 15.3823 103.24V53.2574" fill="black"/>
<path fill-rule="evenodd" clip-rule="evenodd" d="M182.34 206.418C188.961 201.065 193.516 194.734 194.265 187.91H211.809C213.476 187.91 224.109 188.052 225.707 187.894C231.968 187.27 230.033 178.368 225.743 178.206L215.264 177.811C210.449 177.63 193.427 174.995 193.84 155.82C194.253 136.645 210.203 131.591 219.676 131.591H243.404V151.803H218.68C208.385 151.803 213.247 160.925 216.184 161.049L229.425 161.61C239.387 162.031 248.871 169.425 248.26 185.852C247.649 202.279 235.433 206.418 218.768 206.418H182.34" fill="black"/>
<path fill-rule="evenodd" clip-rule="evenodd" d="M135.609 131.591H155.081V180.044C155.081 190.615 169.524 190.984 169.524 180.044V131.591H188.995V180.017C188.995 183.918 188.435 187.492 187.34 190.711C186.245 193.932 184.576 196.714 182.361 199.019C180.145 201.339 177.356 203.125 174.02 204.38C170.684 205.635 166.76 206.264 162.303 206.264C158.157 206.264 154.405 205.54 151.055 204.094C147.691 202.648 144.851 200.656 142.557 198.146C140.263 195.636 138.516 192.813 137.356 189.703C136.196 186.592 135.609 183.345 135.609 180.017V131.591Z" fill="black"/>
<path fill-rule="evenodd" clip-rule="evenodd" d="M15.0563 204.24V131.591H33.864V158.443H50.8355V131.59H69.6437V204.239H50.8355V176.836H33.864V204.24H15.0563Z" fill="black"/>
<path fill-rule="evenodd" clip-rule="evenodd" d="M130.181 206.264H110.71V187.687H96.2672V206.264H76.7974V157.838C76.7974 153.937 77.3584 150.363 78.4516 147.143C79.547 143.923 81.2162 141.141 83.4303 138.836C85.6464 136.517 88.435 134.73 91.7724 133.475C95.1079 132.219 99.0312 131.591 103.489 131.591C107.634 131.591 111.387 132.315 114.737 133.761C118.099 135.206 120.941 137.199 123.234 139.709C125.528 142.219 127.275 145.042 128.435 148.153C129.595 151.263 130.181 154.51 130.181 157.838V206.264ZM110.71 170.214V157.812C110.71 147.241 96.2672 146.87 96.2672 157.812V170.214H110.71" fill="black"/>
<path fill-rule="evenodd" clip-rule="evenodd" d="M106.346 52.9933H125.321V125.705H106.346V52.9933" fill="black"/>
<path d="M4.12604 42.9814H253.575V215.832H4.12604V42.9814ZM6.68489 45.54V213.273H251.016V45.54H6.68489" fill="black"/>
</svg>
